<svg>
<symbol id="helmet1" xmlns:dc="http://purl.org/dc/elements/1.1/" xmlns:cc="http://creativecommons.org/ns#" xmlns:rdf="http://www.w3.org/1999/02/22-rdf-syntax-ns#" xmlns:svg="http://www.w3.org/2000/svg" xmlns="http://www.w3.org/2000/svg" xmlns:sodipodi="http://sodipodi.sourceforge.net/DTD/sodipodi-0.dtd" xmlns:inkscape="http://www.inkscape.org/namespaces/inkscape" viewBox="0 0 8.4666665 10.583333625" version="1.1" x="0px" y="0px"><g transform="translate(0,-288.53332)"><g transform="matrix(0.26458334,0,0,0.26458336,29.897884,-81.978182)" style="" fill="#000000"><path transform="translate(-643.46719,1020.3622)" d="m 548.91797,385.74805 0,0.002 c -0.37579,0 -0.75286,0.0119 -1.12891,0.0449 -1.00279,0.089 -2.00265,0.30881 -2.97265,0.66211 a 0.50005,0.50005 0 0 0 -0.0488,0.0195 l -0.57031,0.2793 c -5.22202,2.5697 -9.13936,7.17811 -10.81446,12.72461 l -0.76758,2.54687 c -0.66934,2.216 1.02047,4.46875 3.34375,4.46875 l 19.91211,0 a 0.50005,0.50005 0 0 0 0.42579,-0.23632 l 2.49609,-4.0293 c 0.87721,-1.416 1.81603,-3.75061 1.65625,-5.53711 -0.28363,-3.1721 -1.76167,-6.30389 -4.21484,-8.30859 -2.09485,-1.7119 -4.68588,-2.61632 -7.31641,-2.63672 z m -7.67969,4.03125 c 0.11913,0.5322 0.51444,0.99062 1.07813,1.13672 l 4.73632,1.22851 c 0.96869,0.2511 1.66571,1.09401 1.73243,2.09961 l 0.17773,2.67383 c 0.0872,1.3137 -0.86142,2.45191 -2.16016,2.59961 l -8.15234,0.92773 c -1.42434,0.162 -2.86622,-0.0331 -4.19727,-0.56836 l -0.12695,-0.0508 0.0156,-0.0527 c 1.20596,-3.9931 3.63405,-7.47494 6.89648,-9.99414 z M 552.7168,393.5 a 1.25,1.25 0 0 1 1.25,1.25 1.25,1.25 0 0 1 -1.25,1.25 1.25,1.25 0 0 1 -1.25,-1.25 1.25,1.25 0 0 1 1.25,-1.25 z" style="color:#000000;font-style:normal;font-variant:normal;font-weight:normal;font-stretch:normal;font-size:medium;line-height:normal;font-family:sans-serif;text-indent:0;text-align:start;text-decoration:none;text-decoration-line:none;text-decoration-style:solid;text-decoration-color:#000000;letter-spacing:normal;word-spacing:normal;text-transform:none;direction:ltr;writing-mode:lr-tb;baseline-shift:baseline;text-anchor:start;white-space:normal;clip-rule:nonzero;display:inline;overflow:visible;visibility:visible;opacity:1;isolation:auto;mix-blend-mode:normal;color-interpolation:sRGB;color-interpolation-filters:linearRGB;solid-color:#000000;solid-opacity:1;fill:#000000;fill-opacity:1;fill-rule:nonzero;stroke:none;stroke-width:1;stroke-linecap:round;stroke-linejoin:round;stroke-miterlimit:4;stroke-dasharray:none;stroke-dashoffset:0;stroke-opacity:1;color-rendering:auto;image-rendering:auto;shape-rendering:auto;text-rendering:auto;enable-background:accumulate"/></g></g><text x="0" y="23.4666669" fill="#000000" font-size="5px" font-weight="bold" font-family="'Helvetica Neue', Helvetica, Arial-Unicode, Arial, Sans-serif">Created by P Thanga Vignesh</text><text x="0" y="28.4666669" fill="#000000" font-size="5px" font-weight="bold" font-family="'Helvetica Neue', Helvetica, Arial-Unicode, Arial, Sans-serif">from the Noun Project</text></symbol>
</svg>