<svg>

    <symbol id="motorcycle1" xmlns:dc="http://purl.org/dc/elements/1.1/" xmlns:cc="http://creativecommons.org/ns#" xmlns:rdf="http://www.w3.org/1999/02/22-rdf-syntax-ns#" xmlns:svg="http://www.w3.org/2000/svg" xmlns="http://www.w3.org/2000/svg" xmlns:sodipodi="http://sodipodi.sourceforge.net/DTD/sodipodi-0.dtd" xmlns:inkscape="http://www.inkscape.org/namespaces/inkscape" viewBox="0 0 8.4666665 10.583333625" version="1.1" x="0px" y="0px">
    
    <g transform="translate(0,-288.53332)">
        <path d="m 1.8520747,292.75535 a 1.0583334,1.0639478 0 0 0 -1.05833335,1.06395 1.0583334,1.0639478 0 0 0 1.05833335,1.06395 1.0583334,1.0639478 0 0 0 1.0583334,-1.06395 1.0583334,1.0639478 0 0 0 -1.0583334,-1.06395 z m 0,0.26599 a 0.79389252,0.79810411 0 0 1 0.79375,0.79796 0.79389252,0.79810411 0 0 1 -0.79375,0.79796 0.79389252,0.79810411 0 0 1 -0.7942659,-0.79796 0.79389252,0.79810411 0 0 1 0.7942659,-0.79796 z" style="opacity:1;fill:#ffffff;fill-opacity:1;stroke:none;stroke-width:1;stroke-linecap:round;stroke-linejoin:round;stroke-miterlimit:4;stroke-dasharray:none;stroke-opacity:1"/>
        <path style="" d="m 5.6359207,291.22579 0,-0.37592 c -1.05e-5,-0.16847 0.1954689,-0.26112 0.3253582,-0.15416 l 0.8266589,0.68063 c 0.3730731,0.30716 0.3896942,0.8738 0.035272,1.2024 l -1.9833935,1.8389 -1.3268431,0 0,-0.59847 c 0,-0.91814 -0.7425611,-1.66242 -1.6585539,-1.66242 l -0.2653691,0 -0.59707996,-1.06395 1.34118616,0.44811 c 0.033293,0.0112 0.060833,0.0351 0.076565,0.0666 l 0.018574,0.0373 c 0.056327,0.11291 0.1624806,0.19238 0.2862342,0.21428 l 0.7832699,0.13855 c 0.095287,0.0168 0.1934183,-0.003 0.2760398,-0.0524 l 0.4105513,-0.25149 c 0.4025238,-0.24657 0.9083014,-0.24657 1.3108252,0 l 0.5387473,0.33001 z" fill="#ffffff" fill-rule="evenodd" stroke="none"/>
        <path d="m 7.1700967,292.9138 -0.2051553,0.19066 a 0.79389252,0.79810411 0 0 1 0.4433835,0.71484 0.79389252,0.79810411 0 0 1 -0.7937501,0.79796 0.79389252,0.79810411 0 0 1 -0.7363883,-0.50133 l -0.2046394,0.19066 c 0.2049833,0.39967 0.6377385,0.62696 1.0810717,0.56729 0.4433305,-0.0597 0.8018516,-0.3935 0.8950352,-0.83328 0.093189,-0.43978 -0.098899,-0.89068 -0.4795573,-1.1268 z" style="opacity:1;fill:#ffffff;fill-opacity:1;stroke:none;stroke-width:1;stroke-linecap:round;stroke-linejoin:round;stroke-miterlimit:4;stroke-dasharray:none;stroke-opacity:1"/>
    </g>
    <text x="0" y="23.4666669" fill="#000000" font-size="5px" font-weight="bold" font-family="'Helvetica Neue', Helvetica, Arial-Unicode, Arial, Sans-serif">Created by P Thanga Vignesh</text>
    <text x="0" y="28.4666669" fill="#000000" font-size="5px" font-weight="bold" font-family="'Helvetica Neue', Helvetica, Arial-Unicode, Arial, Sans-serif">from the Noun Project</text>
    </symbol>
</svg>
